<?xml version="1.0" encoding="UTF-8" standalone="no"?>
<!DOCTYPE svg PUBLIC "-//W3C//DTD SVG 1.1//EN" "http://www.w3.org/Graphics/SVG/1.1/DTD/svg11.dtd">
<svg xmlns="http://www.w3.org/2000/svg" version="1.1" width="45" height="45">
  <g style="opacity:1; fill:000000; fill-opacity:1; fill-rule:evenodd; stroke:#000000; stroke-width:1.5; stroke-linecap:round;stroke-linejoin:round;stroke-miterlimit:4; stroke-dasharray:none; stroke-opacity:1;">
    <path
      d="M10 39 37 39 37 36 10 36 10 39z"
      style="stroke-linecap:butt;" />
    <path
      d="M13.5 32 15 29.5 32 29.5 33.5 32 13.5 32z"
      style="stroke-linecap:butt;" />
    <path
      d="M13 36 13 32 34 32 34 36 13 36z"
      style="stroke-linecap:butt;" />
    <path
      d="M15 29.5 15 16.5 32 16.5 32 29.5 15 29.5z"
      style="stroke-linecap:butt;stroke-linejoin:miter;" />
    <path
      d="M15 16.5 12 14 35 14 32 16.5 15 16.5z"
      style="stroke-linecap:butt;" />
    <path
      d="M12 14 12 9 16 9 16 11 21 11 21 9 26 9 26 11 31 11 31 9 35 9 35 14 12 14z"
      style="stroke-linecap:butt;" />
    <path
      d="M13 35.5 34 35.5 34 35.5"
      style="fill:none; stroke:#ffffff; stroke-width:1; stroke-linejoin:miter;" />
    <path
      d="M14 31.5 33 31.5"
      style="fill:none; stroke:#ffffff; stroke-width:1; stroke-linejoin:miter;" />
    <path
      d="M15 29.5 32 29.5"
      style="fill:none; stroke:#ffffff; stroke-width:1; stroke-linejoin:miter;" />
    <path
      d="M15 16.5 32 16.5"
      style="fill:none; stroke:#ffffff; stroke-width:1; stroke-linejoin:miter;" />
    <path
      d="M12 14 35 14"
      style="fill:none; stroke:#ffffff; stroke-width:1; stroke-linejoin:miter;" />
  </g>
</svg>
