<?xml version="1.0" encoding="UTF-8" standalone="no"?>
<!DOCTYPE svg PUBLIC "-//W3C//DTD SVG 1.1//EN" "http://www.w3.org/Graphics/SVG/1.1/DTD/svg11.dtd">
<svg xmlns="http://www.w3.org/2000/svg" version="1.1" width="45" height="45">
  <path
    d="M22.5 7.25C20.29 7.25 18.5 9.04 18.5 11.25 18.5 12.14 18.79 12.96 19.28 13.63 17.33 14.75 16 16.84 16 19.25 16 21.28 16.94 23.09 18.41 24.28 15.41 25.34 11 29.83 11 37.75L34 37.75C34 29.83 29.59 25.34 26.59 24.28 28.06 23.09 29 21.28 29 19.25 29 16.84 27.67 14.75 25.72 13.63 26.21 12.96 26.5 12.14 26.5 11.25 26.5 9.04 24.71 7.25 22.5 7.25z"
    style="opacity:1; fill:#ffffff; fill-opacity:1; fill-rule:nonzero; stroke:#000000; stroke-width:1.5; stroke-linecap:round; stroke-linejoin:miter; stroke-miterlimit:4; stroke-dasharray:none; stroke-opacity:1;" />
</svg>
